<?xml version="1.0" encoding="UTF-8"?><svg id="Layer_1" xmlns="http://www.w3.org/2000/svg" viewBox="0 0 300 110.36"><defs><style>.cls-1{fill:#231f20;}.cls-1,.cls-2,.cls-3{stroke-width:0px;}.cls-2{fill:#fff;}.cls-3{fill:#ea002a;}</style></defs><polygon class="cls-2" points="0 0 0 110.37 300 110.37 300 0 0 0 0 0"/><polygon class="cls-3" points="147.21 11.55 11.54 11.55 11.54 31.85 147.21 31.85 147.21 11.55 147.21 11.55"/><polygon class="cls-1" points="285.88 11.55 285.88 31.85 288.45 31.85 288.45 11.55 285.88 11.55 285.88 11.55"/><polygon class="cls-1" points="153.94 11.55 153.94 31.85 156.51 31.85 156.51 11.55 153.94 11.55 153.94 11.55"/><polygon class="cls-1" points="160.22 11.55 160.22 31.85 162.79 31.85 162.79 11.55 160.22 11.55 160.22 11.55"/><polygon class="cls-1" points="166.5 11.55 166.5 31.85 169.08 31.85 169.08 11.55 166.5 11.55 166.5 11.55"/><polygon class="cls-1" points="172.78 11.55 172.78 31.85 175.36 31.85 175.36 11.55 172.78 11.55 172.78 11.55"/><polygon class="cls-1" points="179.06 11.55 179.06 31.85 181.64 31.85 181.64 11.55 179.06 11.55 179.06 11.55"/><polygon class="cls-1" points="185.35 11.55 185.35 31.85 187.93 31.85 187.93 11.55 185.35 11.55 185.35 11.55"/><polygon class="cls-1" points="191.63 11.55 191.63 31.85 194.21 31.85 194.21 11.55 191.63 11.55 191.63 11.55"/><polygon class="cls-1" points="197.92 11.55 197.92 31.85 200.49 31.85 200.49 11.55 197.92 11.55 197.92 11.55"/><polygon class="cls-1" points="204.2 11.55 204.2 31.85 206.78 31.85 206.78 11.55 204.2 11.55 204.2 11.55"/><polygon class="cls-1" points="210.48 11.55 210.48 31.85 213.06 31.85 213.06 11.55 210.48 11.55 210.48 11.55"/><polygon class="cls-1" points="216.76 11.55 216.76 31.85 219.34 31.85 219.34 11.55 216.76 11.55 216.76 11.55"/><polygon class="cls-1" points="223.05 11.55 223.05 31.85 225.62 31.85 225.62 11.55 223.05 11.55 223.05 11.55"/><polygon class="cls-1" points="229.33 11.55 229.33 31.85 231.9 31.85 231.9 11.55 229.33 11.55 229.33 11.55"/><polygon class="cls-1" points="235.61 11.55 235.61 31.85 238.19 31.85 238.19 11.55 235.61 11.55 235.61 11.55"/><polygon class="cls-1" points="241.89 11.55 241.89 31.85 244.47 31.85 244.47 11.55 241.89 11.55 241.89 11.55"/><polygon class="cls-1" points="248.18 11.55 248.18 31.85 250.76 31.85 250.76 11.55 248.18 11.55 248.18 11.55"/><polygon class="cls-1" points="254.46 11.55 254.46 31.85 257.04 31.85 257.04 11.55 254.46 11.55 254.46 11.55"/><polygon class="cls-1" points="260.74 11.55 260.74 31.85 263.32 31.85 263.32 11.55 260.74 11.55 260.74 11.55"/><polygon class="cls-1" points="267.03 11.55 267.03 31.85 269.6 31.85 269.6 11.55 267.03 11.55 267.03 11.55"/><polygon class="cls-1" points="273.31 11.55 273.31 31.85 275.89 31.85 275.89 11.55 273.31 11.55 273.31 11.55"/><polygon class="cls-1" points="279.59 11.55 279.59 31.85 282.17 31.85 282.17 11.55 279.59 11.55 279.59 11.55"/><polygon class="cls-3" points="147.21 78.52 11.54 78.52 11.54 98.82 147.21 98.82 147.21 78.52 147.21 78.52"/><polygon class="cls-1" points="285.88 78.52 285.88 98.82 288.45 98.82 288.45 78.52 285.88 78.52 285.88 78.52"/><polygon class="cls-1" points="153.94 78.52 153.94 98.82 156.51 98.82 156.51 78.52 153.94 78.52 153.94 78.52"/><polygon class="cls-1" points="160.22 78.52 160.22 98.82 162.79 98.82 162.79 78.52 160.22 78.52 160.22 78.52"/><polygon class="cls-1" points="166.5 78.52 166.5 98.82 169.08 98.82 169.08 78.52 166.5 78.52 166.5 78.52"/><polygon class="cls-1" points="172.78 78.52 172.78 98.82 175.36 98.82 175.36 78.52 172.78 78.52 172.78 78.52"/><polygon class="cls-1" points="179.06 78.52 179.06 98.82 181.64 98.82 181.64 78.52 179.06 78.52 179.06 78.52"/><polygon class="cls-1" points="185.35 78.52 185.35 98.82 187.93 98.82 187.93 78.52 185.35 78.52 185.35 78.52"/><polygon class="cls-1" points="191.63 78.52 191.63 98.82 194.21 98.82 194.21 78.52 191.63 78.52 191.63 78.52"/><polygon class="cls-1" points="197.92 78.52 197.92 98.82 200.49 98.82 200.49 78.52 197.92 78.52 197.92 78.52"/><polygon class="cls-1" points="204.2 78.52 204.2 98.82 206.78 98.82 206.78 78.52 204.2 78.52 204.2 78.52"/><polygon class="cls-1" points="210.48 78.52 210.48 98.82 213.06 98.82 213.06 78.52 210.48 78.52 210.48 78.52"/><polygon class="cls-1" points="216.76 78.52 216.76 98.82 219.34 98.82 219.34 78.52 216.76 78.52 216.76 78.52"/><polygon class="cls-1" points="223.05 78.52 223.05 98.82 225.62 98.82 225.62 78.52 223.05 78.52 223.05 78.52"/><polygon class="cls-1" points="229.33 78.52 229.33 98.82 231.9 98.82 231.9 78.52 229.33 78.52 229.33 78.52"/><polygon class="cls-1" points="235.61 78.52 235.61 98.82 238.19 98.82 238.19 78.52 235.61 78.52 235.61 78.52"/><polygon class="cls-1" points="241.89 78.52 241.89 98.82 244.47 98.82 244.47 78.52 241.89 78.52 241.89 78.52"/><polygon class="cls-1" points="248.18 78.52 248.18 98.82 250.76 98.82 250.76 78.52 248.18 78.52 248.18 78.52"/><polygon class="cls-1" points="254.46 78.52 254.46 98.82 257.04 98.82 257.04 78.52 254.46 78.52 254.46 78.52"/><polygon class="cls-1" points="260.74 78.52 260.74 98.82 263.32 98.82 263.32 78.52 260.74 78.52 260.74 78.52"/><polygon class="cls-1" points="267.03 78.52 267.03 98.82 269.6 98.82 269.6 78.52 267.03 78.52 267.03 78.52"/><polygon class="cls-1" points="273.31 78.52 273.31 98.82 275.89 98.82 275.89 78.52 273.31 78.52 273.31 78.52"/><polygon class="cls-1" points="279.59 78.52 279.59 98.82 282.17 98.82 282.17 78.52 279.59 78.52 279.59 78.52"/><path class="cls-1" d="m17.8,53.31h3.26c1.71,0,3.37-.73,3.37-2.83,0-1.85-1.2-2.79-3.52-2.79h-3.11v5.62h0Zm4.89-10.15c5.08,0,8.08,3.41,8.08,7.1,0,2.72-1.41,4.75-4.24,6.05,2.54,1.27,3.3,4.31,6.78,11.56h-6.78c-2.65-5.29-3.62-10.04-6.96-10.04h-1.78v10.04h-6.16v-24.72h11.05Z"/><path class="cls-1" d="m47.99,47.98c-4.71,0-7.83,3.01-7.83,7.54s3.12,7.54,7.83,7.54,7.79-3.01,7.79-7.54-3.11-7.54-7.79-7.54h0Zm0,20.23c-9.06,0-14.17-6.38-14.17-12.69,0-5.98,4.85-12.69,14.17-12.69s14.14,6.74,14.14,12.69c0,6.34-5.26,12.69-14.14,12.69h0Z"/><polygon class="cls-1" points="70.79 56.32 61.03 43.16 68.5 43.16 73.86 50.92 79.26 43.16 86.69 43.16 76.94 56.32 76.94 67.88 70.79 67.88 70.79 56.32 70.79 56.32"/><path class="cls-1" d="m95.65,49.07l-3.62,9.61h7.61l-3.99-9.61h0Zm14.46,18.81h-6.63l-2.03-4.89h-11.05l-1.85,4.89h-6.53l9.97-24.72h7.14l10.98,24.72h0Z"/><polygon class="cls-1" points="132.27 67.88 113.43 67.88 113.43 43.16 119.59 43.16 119.59 63.35 132.27 63.35 132.27 67.88 132.27 67.88"/><polygon class="cls-1" points="162.38 67.88 143.53 67.88 143.53 43.16 149.69 43.16 149.69 63.35 162.38 63.35 162.38 67.88 162.38 67.88"/><polygon class="cls-1" points="180.53 67.88 166.07 67.88 166.07 48.27 180.32 48.27 180.32 51.87 170.95 51.87 170.95 55.98 179.9 55.98 179.9 59.57 170.95 59.57 170.95 64.28 180.53 64.28 180.53 67.88 180.53 67.88"/><path class="cls-1" d="m191.29,53.42h2.86c2.83,0,3.84-1.02,3.84-2.86,0-2.1-1.2-2.87-4.53-2.87h-2.17v5.73h0Zm4.85-10.26c5.65,0,8.19,3.95,8.19,7.32s-2.46,7.47-8.15,7.47h-4.89v9.93h-6.17v-24.72h11.02Z"/><path class="cls-1" d="m215.56,49.07l-3.62,9.61h7.61l-3.99-9.61h0Zm14.46,18.81h-6.63l-2.02-4.89h-11.06l-1.85,4.89h-6.52l9.96-24.72h7.14l10.98,24.72h0Z"/><path class="cls-1" d="m254.5,50.26c-3.15-1.52-6.2-2.29-9.24-2.29-6.71,0-9.06,4.13-9.06,7.8,0,4.38,3.44,7.28,8.55,7.28,1.52,0,2.28-.15,4.09-.87v-2.9h-3.59v-4.53h9.75v10.11c-1.85,1.92-6.41,3.34-10.4,3.34-8.63,0-14.75-5.26-14.75-12.65s6.09-12.72,14.9-12.72c3.69,0,7.29.84,9.75,2.03v5.4h0Z"/><polygon class="cls-1" points="277.59 67.88 259.35 67.88 259.35 43.16 277.59 43.16 277.59 47.69 265.52 47.69 265.52 52.87 276.79 52.87 276.79 57.41 265.52 57.41 265.52 63.35 277.59 63.35 277.59 67.88 277.59 67.88"/><path class="cls-1" d="m279.64,45.85c0-.84.19-1.62.58-2.33.39-.72.93-1.28,1.61-1.7.69-.41,1.43-.62,2.23-.62s1.54.21,2.23.62c.69.41,1.22.98,1.61,1.7.39.72.58,1.5.58,2.33s-.2,1.63-.59,2.35c-.39.72-.93,1.29-1.62,1.7-.68.41-1.42.62-2.21.62s-1.54-.21-2.23-.62-1.22-.98-1.61-1.7c-.39-.72-.59-1.5-.59-2.34Zm.76,0c0,.68.15,1.32.46,1.92.31.59.75,1.07,1.32,1.43.57.36,1.2.54,1.88.54s1.3-.18,1.87-.54c.57-.36,1.01-.83,1.32-1.43s.47-1.23.47-1.92-.16-1.33-.47-1.92c-.31-.59-.75-1.06-1.32-1.42-.57-.35-1.19-.53-1.87-.53s-1.27.17-1.84.51c-.57.34-1.01.81-1.34,1.41s-.49,1.25-.49,1.95Zm2.76.47v2.1h-.94v-5.29h1.75c.64,0,1.14.15,1.49.44.35.29.53.69.53,1.21,0,.46-.22.81-.67,1.06.24.13.41.32.5.55.1.23.14.52.14.86s0,.58.02.73.04.26.08.35v.1h-.96c-.05-.14-.08-.54-.08-1.21,0-.32-.07-.54-.21-.68-.14-.14-.37-.21-.68-.21h-.98Zm0-.83h.8c.32,0,.58-.07.79-.2.21-.13.31-.31.31-.53,0-.29-.07-.5-.22-.62-.15-.12-.41-.19-.8-.19h-.88v1.53Z"/></svg>